<svg xmlns="http://www.w3.org/2000/svg" width="70.707" height="67.51" viewBox="0 0 70.707 67.51">
  <g id="Grupo_41" data-name="Grupo 41" transform="translate(2.5 2.5)">
    <line id="Linha_136" data-name="Linha 136" y1="33.466" transform="translate(18.678 0)" fill="none" stroke="#fff" stroke-linecap="round" stroke-linejoin="round" stroke-width="5"/>
    <path id="Caminho_9559" data-name="Caminho 9559" d="M1334.389,738.814h25.063a7.994,7.994,0,0,1,7.9,6.77L1371.134,770a7.759,7.759,0,0,1-7.668,8.948h-18.129V793.43a7.861,7.861,0,0,1-7.861,7.861h-.117a4.245,4.245,0,0,1-4.192-3.569h0a74.9,74.9,0,0,0-6.585-20.649l-2.337-4.794h-13.724a4.985,4.985,0,0,1-4.985-4.985V743.8a4.985,4.985,0,0,1,4.985-4.983h13.693" transform="translate(-1305.536 -738.781)" fill="none" stroke="#fff" stroke-linecap="round" stroke-linejoin="round" stroke-width="5"/>
  </g>
</svg>
