<svg xmlns="http://www.w3.org/2000/svg" width="70.706" height="67.51" viewBox="0 0 70.706 67.51">
  <g id="Grupo_40" data-name="Grupo 40" transform="translate(-1303.036 -736.314)">
    <line id="Linha_136" data-name="Linha 136" y2="33.466" transform="translate(1324.214 767.858)" fill="none" stroke="#fff" stroke-linecap="round" stroke-linejoin="round" stroke-width="5"/>
    <path id="Caminho_9559" data-name="Caminho 9559" d="M1334.389,801.291h25.063a7.994,7.994,0,0,0,7.9-6.77l3.783-24.415a7.759,7.759,0,0,0-7.668-8.948h-18.129V746.675a7.861,7.861,0,0,0-7.861-7.861h-.117a4.245,4.245,0,0,0-4.192,3.569h0a74.9,74.9,0,0,1-6.585,20.649l-2.337,4.794h-13.724a4.985,4.985,0,0,0-4.985,4.985v23.5a4.985,4.985,0,0,0,4.985,4.983h13.693" transform="translate(0 0)" fill="none" stroke="#fff" stroke-linecap="round" stroke-linejoin="round" stroke-width="5"/>
  </g>
</svg>
